# Blender 4.1.0
# www.blender.org
mtllib Bus.mtl
o Cube
v -5.025000 -5.527500 25.124998
v -4.705754 5.176330 25.124998
v -5.025000 -5.527500 -25.124998
v -5.025000 5.527500 -25.124998
v 5.025000 -5.527500 25.124998
v 4.705754 5.176330 25.124998
v 5.025000 -5.527500 -25.124998
v 5.025000 5.527500 -25.124998
v -4.705754 -0.400300 25.124998
v 4.705754 -0.400300 25.124998
v 0.000000 -5.527500 25.124998
v 0.000000 5.176330 25.124998
v 0.000000 -0.400300 25.124998
v -5.025000 -0.751469 25.124998
v -5.025000 5.527500 25.124998
v 0.000000 5.527500 25.124998
v 5.025000 5.527500 25.124998
v 5.025000 -0.751469 25.124998
v 0.000000 -0.751469 25.124998
v -4.705754 5.176330 -4.533904
v 4.705754 5.176330 -4.533904
v -4.705754 -0.400300 -4.533904
v 4.705754 -0.400300 -4.533904
v 0.000000 5.176330 -4.533904
v -4.705754 5.176330 -24.810406
v 4.705754 5.176330 -24.810406
v -4.705754 -0.400300 -24.810406
v 4.705754 -0.400300 -24.810406
v 0.000000 5.176330 -24.810406
v 0.000000 -0.400300 -24.810406
v -4.705754 5.176330 -25.017130
v 4.705754 5.176330 -25.017130
v -4.705754 -0.400300 -25.017130
v 4.705754 -0.400300 -25.017130
v 0.000000 5.176330 -25.017130
v 0.000000 -0.400300 -25.017130
v -4.705754 -0.400300 24.523624
v 4.705754 -0.400300 24.523624
v 0.000000 -0.400300 24.523624
v 0.000000 -4.744447 25.124998
v -4.705754 -4.744447 25.124998
v 4.705754 -4.744447 25.124998
v -4.705754 -4.744447 -4.533904
v 0.000000 -4.744447 -24.810406
v -4.705754 -4.744447 -24.810406
v 4.705754 -4.744447 -24.810406
v 4.705754 -4.744447 -4.533904
vn -1.0000 -0.0000 -0.0000
vn -0.0000 -0.0000 -1.0000
vn 1.0000 -0.0000 -0.0000
vn -0.0000 -1.0000 -0.0000
vn -0.0000 1.0000 -0.0000
vn -0.0000 -0.0000 1.0000
vt 0.375000 0.000000
vt 0.483006 0.000000
vt 0.625000 0.000000
vt 0.625000 0.250000
vt 0.375000 0.250000
vt 0.625000 0.500000
vt 0.375000 0.500000
vt 0.625000 0.750000
vt 0.483006 0.750000
vt 0.375000 0.750000
vt 0.617059 0.875000
vt 0.617059 0.992059
vt 0.125000 0.500000
vt 0.250000 0.750000
vt 0.125000 0.750000
vt 0.875000 0.500000
vt 0.875000 0.750000
vt 0.750000 0.750000
vt 0.375000 0.875000
vt 0.483006 0.875000
vt 0.483006 1.000000
vt 0.375000 1.000000
vt 0.617059 0.757941
vt 0.490948 0.992059
vt 0.625000 1.000000
vt 0.625000 0.875000
vt 0.490948 0.757941
vt 0.490948 0.875000
s 0
f 1/1/1 14/2/1 15/3/1 4/4/1 3/5/1
f 3/5/2 4/4/2 8/6/2 7/7/2
f 7/7/3 8/6/3 17/8/3 18/9/3 5/10/3
f 12/11/4 2/12/4 20/12/4 24/11/4
f 3/13/4 7/7/4 5/10/4 11/14/4 1/15/4
f 8/6/5 4/16/5 15/17/5 16/18/5 17/8/5
f 11/19/6 19/20/6 14/21/6 1/22/6
f 5/10/6 18/9/6 19/20/6 11/19/6
f 6/23/4 12/11/4 24/11/4 21/23/4
f 9/24/6 2/12/6 15/25/6 14/21/6
f 2/12/6 12/11/6 16/26/6 15/25/6
f 6/23/6 10/27/6 18/9/6 17/8/6
f 12/11/6 6/23/6 17/8/6 16/26/6
f 13/28/6 9/24/6 14/21/6 19/20/6
f 10/27/6 13/28/6 19/20/6 18/9/6
f 13/28/2 10/27/2 42/27/2 40/28/2
f 24/11/4 20/12/4 25/12/4 29/11/4
f 10/27/1 6/23/1 21/23/1 23/27/1
f 2/12/3 9/24/3 22/24/3 20/12/3
f 30/28/5 28/27/5 34/27/5 36/28/5
f 25/12/3 27/24/3 33/24/3 31/12/3
f 23/27/1 21/23/1 26/23/1 28/27/1
f 20/12/3 22/24/3 27/24/3 25/12/3
f 21/23/4 24/11/4 29/11/4 26/23/4
f 36/28/6 35/11/6 31/12/6 33/24/6
f 34/27/6 32/23/6 35/11/6 36/28/6
f 26/23/4 29/11/4 35/11/4 32/23/4
f 29/11/4 25/12/4 31/12/4 35/11/4
f 27/24/5 30/28/5 36/28/5 33/24/5
f 28/27/1 26/23/1 32/23/1 34/27/1
f 10/27/4 13/28/4 39/28/4 38/27/4
f 13/28/4 9/24/4 37/24/4 39/28/4
f 41/24/5 40/28/5 42/27/5 47/27/5 46/27/5 44/28/5 45/24/5 43/24/5
f 30/28/6 27/24/6 45/24/6 44/28/6
f 10/27/1 23/27/1 47/27/1 42/27/1
f 23/27/1 28/27/1 46/27/1 47/27/1
f 22/24/3 9/24/3 41/24/3 43/24/3
f 27/24/3 22/24/3 43/24/3 45/24/3
f 28/27/6 30/28/6 44/28/6 46/27/6
f 9/24/2 13/28/2 40/28/2 41/24/2
